<?xml version="1.0" encoding="utf-8"?>
<!-- Generator: Adobe Illustrator 17.0.0, SVG Export Plug-In . SVG Version: 6.00 Build 0)  -->
<!DOCTYPE svg PUBLIC "-//W3C//DTD SVG 1.1//EN" "http://www.w3.org/Graphics/SVG/1.1/DTD/svg11.dtd">
<svg version="1.1" xmlns="http://www.w3.org/2000/svg" xmlns:xlink="http://www.w3.org/1999/xlink" x="0px" y="0px" width="30px"
	 height="30px" viewBox="0 0 30 30" enable-background="new 0 0 30 30" xml:space="preserve">
<g id="features" display="none">
	<g display="inline">
		<g>
			<path fill="#3796FF" d="M7.5,2.3c2.867,0,5.2,2.333,5.2,5.2s-2.333,5.2-5.2,5.2s-5.2-2.333-5.2-5.2S4.633,2.3,7.5,2.3 M7.5,1
				C3.91,1,1,3.91,1,7.5S3.91,14,7.5,14S14,11.09,14,7.5S11.09,1,7.5,1L7.5,1z"/>
		</g>
		<circle fill="#3796FF" cx="7.5" cy="7.5" r="3.714"/>
	</g>
	<g display="inline">
		<g>
			<path fill="#3796FF" d="M22.5,2.3c2.867,0,5.2,2.333,5.2,5.2s-2.333,5.2-5.2,5.2s-5.2-2.333-5.2-5.2S19.633,2.3,22.5,2.3 M22.5,1
				C18.91,1,16,3.91,16,7.5s2.91,6.5,6.5,6.5S29,11.09,29,7.5S26.09,1,22.5,1L22.5,1z"/>
		</g>
		<circle display="none" fill="#3796FF" cx="22.5" cy="7.5" r="3.714"/>
	</g>
	<g display="inline">
		<g>
			<path fill="#3796FF" d="M22.5,17.3c2.867,0,5.2,2.333,5.2,5.2s-2.333,5.2-5.2,5.2s-5.2-2.333-5.2-5.2S19.633,17.3,22.5,17.3
				 M22.5,16c-3.59,0-6.5,2.91-6.5,6.5s2.91,6.5,6.5,6.5s6.5-2.91,6.5-6.5S26.09,16,22.5,16L22.5,16z"/>
		</g>
		<circle fill="#3796FF" cx="22.5" cy="22.5" r="3.714"/>
	</g>
	<g display="inline">
		<g>
			<path fill="#3796FF" d="M7.5,17.3c2.867,0,5.2,2.333,5.2,5.2s-2.333,5.2-5.2,5.2s-5.2-2.333-5.2-5.2S4.633,17.3,7.5,17.3 M7.5,16
				C3.91,16,1,18.91,1,22.5S3.91,29,7.5,29s6.5-2.91,6.5-6.5S11.09,16,7.5,16L7.5,16z"/>
		</g>
		<circle display="none" fill="#3796FF" cx="7.5" cy="22.5" r="3.714"/>
	</g>
</g>
<g id="color_x5F_flag">
	<g>
		<path fill="#3796FF" stroke="#3796FF" stroke-width="0.75" stroke-miterlimit="10" d="M15.862,19.946l-4.641-0.215L7.602,6.223
			l4.846,0.16l4.722-2.667l4.882,0.014l3.608-2.352l3.622,13.517l-3.758,2.25l-4.791,0.115L15.862,19.946z M11.495,19.391
			l4.284,0.198l4.861-2.679l4.784-0.114l3.45-2.066L25.446,1.938l-3.29,2.145l-4.894-0.014l-4.727,2.669L8.065,6.59L11.495,19.391z"
			/>
		<path fill="#3796FF" stroke="#3796FF" stroke-width="0.75" stroke-miterlimit="10" d="M15.524,19.983l-4.997-0.231L6.718,5.537
			l5.222,0.173l4.717-2.664l4.87,0.014l3.927-2.56l3.816,14.243l-4.065,2.434l-4.798,0.115L15.524,19.983z M11.347,18.733
			l3.928,0.182l4.849-2.672l4.777-0.115l3.142-1.882L24.81,2.18l-2.971,1.937l-4.906-0.015l-4.732,2.672L8.106,6.639L11.347,18.733z
			"/>
		
			<rect x="10.047" y="5.845" transform="matrix(0.9659 -0.2588 0.2588 0.9659 -4.244 3.3613)" fill="#3796FF" stroke="#3796FF" stroke-width="0.75" stroke-miterlimit="10" width="1.194" height="23.908"/>
	</g>
</g>
<g id="fast_x5F_search" display="none">
	
		<circle display="inline" fill="none" stroke="#3796FF" stroke-width="2.3" stroke-miterlimit="10" cx="9.958" cy="10.125" r="8.5"/>
	<polygon display="inline" fill="#3796FF" points="26.331,30 13.831,16.826 16.449,13.915 30,25.949 	"/>
</g>
<g id="shortcuts" display="none">
</g>
</svg>
