<?xml version="1.0" encoding="utf-8"?>
<!-- Generator: Adobe Illustrator 17.0.0, SVG Export Plug-In . SVG Version: 6.00 Build 0)  -->
<!DOCTYPE svg PUBLIC "-//W3C//DTD SVG 1.1//EN" "http://www.w3.org/Graphics/SVG/1.1/DTD/svg11.dtd">
<svg version="1.1" xmlns="http://www.w3.org/2000/svg" xmlns:xlink="http://www.w3.org/1999/xlink" x="0px" y="0px" width="30px"
	 height="30px" viewBox="0 0 30 30" enable-background="new 0 0 30 30" xml:space="preserve">
<g id="attachments" display="none">
	<g display="inline">
		<path fill="none" stroke="#3796FF" stroke-width="1.4" stroke-miterlimit="10" d="M20.427,8.643L9.734,21.386L20.427,8.643z"/>
		<line fill="none" stroke="#3796FF" stroke-width="1.4" stroke-miterlimit="10" x1="21.666" y1="2.188" x2="6.082" y2="20.761"/>
		<line fill="none" stroke="#3796FF" stroke-width="1.4" stroke-miterlimit="10" x1="14.543" y1="27.861" x2="24.586" y2="15.892"/>
		<path fill="none" stroke="#3796FF" stroke-width="1.4" stroke-miterlimit="10" d="M9.944,21.136c0,0-0.739,0.915-0.836,2.019
			s0.682,2.893,2.77,2.312c0.513-0.143,1.205-0.529,1.806-1.193L27.91,7.32"/>
		<path fill="none" stroke="#3796FF" stroke-width="1.4" stroke-miterlimit="10" d="M6.135,20.698c0,0-0.962,1.224-0.634,3.069
			c0.328,1.845,2.613,5.263,6.255,5.232c0.894-0.008,2.014-0.35,2.834-1.207"/>
		<path fill="none" stroke="#3796FF" stroke-width="1.4" stroke-miterlimit="10" d="M27.848,7.375c0,0,0.839-1.058,0.705-2.532
			c-0.134-1.474-1.704-4.093-4.574-3.824c-0.705,0.066-1.609,0.419-2.312,1.169"/>
	</g>
</g>
<g id="smartboxes" display="none">
	<path display="inline" fill="#3796FF" stroke="#3796FF" stroke-width="0.5" stroke-miterlimit="10" d="M16.845,1.723l2.419,0.568
		l-0.339,1.442l-0.214,0.912l0.852,0.392c1.256,0.578,2.377,1.385,3.332,2.399l0.642,0.682l0.797-0.494l1.262-0.782l1.309,2.112
		l-1.262,0.782l-0.797,0.494l0.325,0.879c0.483,1.306,0.707,2.669,0.665,4.051l-0.028,0.937l0.912,0.214l1.442,0.339l-0.568,2.419
		l-1.442-0.339l-0.912-0.214l-0.392,0.852c-0.578,1.256-1.385,2.377-2.399,3.332l-0.682,0.642l0.494,0.797l0.782,1.262l-2.112,1.309
		l-0.782-1.262l-0.494-0.797l-0.879,0.325c-1.202,0.444-2.455,0.67-3.727,0.67c-0.108,0-0.216-0.002-0.324-0.005l-0.937-0.028
		l-0.214,0.912l-0.339,1.442l-2.419-0.568l0.339-1.442l0.214-0.912l-0.852-0.392c-1.256-0.578-2.377-1.385-3.332-2.399l-0.642-0.682
		l-0.797,0.494l-1.262,0.782l-1.309-2.112l1.262-0.782l0.797-0.494L4.909,18.58c-0.483-1.306-0.707-2.669-0.665-4.051l0.028-0.937
		l-0.912-0.214l-1.442-0.339l0.568-2.419l1.442,0.339l0.912,0.214l0.392-0.852C5.81,9.066,6.617,7.945,7.631,6.99l0.682-0.642
		L7.82,5.551L7.038,4.29L9.15,2.981l0.782,1.262l0.494,0.797l0.879-0.325c1.202-0.444,2.455-0.67,3.727-0.67
		c0.108,0,0.216,0.002,0.324,0.005l0.937,0.028l0.214-0.912L16.845,1.723 M15.043,20.173c2.483,0,4.614-1.69,5.183-4.11
		c0.672-2.86-1.109-5.733-3.968-6.404c-0.401-0.094-0.812-0.142-1.222-0.142c-2.483,0-4.614,1.69-5.183,4.11
		c-0.672,2.86,1.109,5.733,3.968,6.404C14.223,20.125,14.634,20.173,15.043,20.173 M15.991,0.345L15.39,2.903
		c-0.12-0.004-0.24-0.005-0.359-0.005c-1.43,0-2.823,0.26-4.125,0.741L9.521,1.402L5.459,3.919l1.386,2.237
		C5.75,7.186,4.841,8.429,4.191,9.843L1.632,9.242L0.54,13.893l2.559,0.601c-0.047,1.555,0.214,3.073,0.736,4.484l-2.237,1.386
		l2.517,4.061l2.237-1.386c1.031,1.095,2.274,2.005,3.687,2.654l-0.601,2.559l4.651,1.092l0.601-2.559
		c0.12,0.004,0.24,0.005,0.359,0.005c1.43,0,2.823-0.26,4.125-0.741l1.386,2.237l4.061-2.517l-1.386-2.237
		c1.095-1.031,2.004-2.274,2.654-3.687l2.559,0.601l1.092-4.651l-2.559-0.601c0.047-1.555-0.214-3.073-0.736-4.484l2.237-1.386
		l-2.517-4.061L23.729,6.65c-1.031-1.095-2.274-2.004-3.687-2.654l0.601-2.559L15.991,0.345L15.991,0.345z M15.043,19.026
		c-0.317,0-0.638-0.036-0.959-0.112c-2.248-0.528-3.642-2.778-3.114-5.026c0.452-1.926,2.17-3.226,4.066-3.226
		c0.316,0,0.638,0.036,0.959,0.112c2.248,0.528,3.642,2.778,3.114,5.026C18.657,17.727,16.94,19.026,15.043,19.026L15.043,19.026z"
		/>
</g>
<g id="signatures" display="none">
	<g display="inline">
		<path fill="none" stroke="#3796FF" stroke-miterlimit="10" d="M12.74,17.989c0,0-10.803-12.289,1.586-15.61
			s2.577,16.204-9.812,19.623s7.532-16.848,11.051-2.23"/>
		<path fill="none" stroke="#3796FF" stroke-miterlimit="10" d="M15.416,19.277c0,0,1.883,5.203,2.279-1.437
			c0.396-6.64,1.536-3.915,1.586-1.14c0.05,2.775,1.784,2.081,1.883-1.982c0.099-4.063,0.991,2.379,1.189,2.874
			c0.198,0.496,0.396,0.644,0.694-0.496s0.644-1.883,0.694-2.279c0.05-0.396-0.099-1.041,0.198,0.743
			c0.297,1.784,1.041,0.942,1.288-0.05s-0.05-0.793,0.347,0.198c0.396,0.991,0.545,2.081,0.793,0.793
			c0.248-1.288,0.05-3.964,1.09-3.419c0,0,11.155,6.088-18.669,13.215c0,0-8.521,2.324,2.401,0.93"/>
	</g>
</g>
<g id="compose">
	<g>
		
			<rect x="14.374" y="-9.195" transform="matrix(0.3848 0.923 -0.923 0.3848 15.2622 -9.7174)" fill="#3796FF" width="1.094" height="31.571"/>
		<rect x="0.356" y="12.13" fill="#3796FF" width="13.539" height="1.094"/>
		
			<rect x="11.527" y="16.985" transform="matrix(0.6157 0.788 -0.788 0.6157 20.6125 -7.201)" fill="#3796FF" width="12.323" height="1.093"/>
		
			<rect x="24.937" y="-0.204" transform="matrix(0.9391 0.3436 -0.3436 0.9391 5.4848 -8.06)" fill="#3796FF" width="1.094" height="23.3"/>
		
			<rect x="20.99" y="-3.421" transform="matrix(0.6076 0.7942 -0.7942 0.6076 13.6849 -14.5189)" fill="#3796FF" width="1.094" height="20.023"/>
		
			<rect x="3.507" y="16.932" transform="matrix(0.1258 0.9921 -0.9921 0.1258 24.6394 6.9982)" fill="#3796FF" width="9.683" height="1.094"/>
		
			<rect x="11.734" y="13.518" transform="matrix(0.7187 0.6953 -0.6953 0.7187 16.1736 -3.3933)" fill="#3796FF" width="1.094" height="9.552"/>
	</g>
</g>
<g id="features" display="none">
	<g display="inline">
		<g>
			<path fill="#3796FF" d="M7.5,2.3c2.867,0,5.2,2.333,5.2,5.2s-2.333,5.2-5.2,5.2s-5.2-2.333-5.2-5.2S4.633,2.3,7.5,2.3 M7.5,1
				C3.91,1,1,3.91,1,7.5S3.91,14,7.5,14S14,11.09,14,7.5S11.09,1,7.5,1L7.5,1z"/>
		</g>
		<circle fill="#3796FF" cx="7.5" cy="7.5" r="3.714"/>
	</g>
	<g display="inline">
		<g>
			<path fill="#3796FF" d="M22.5,2.3c2.867,0,5.2,2.333,5.2,5.2s-2.333,5.2-5.2,5.2s-5.2-2.333-5.2-5.2S19.633,2.3,22.5,2.3 M22.5,1
				C18.91,1,16,3.91,16,7.5s2.91,6.5,6.5,6.5S29,11.09,29,7.5S26.09,1,22.5,1L22.5,1z"/>
		</g>
		<circle display="none" fill="#3796FF" cx="22.5" cy="7.5" r="3.714"/>
	</g>
	<g display="inline">
		<g>
			<path fill="#3796FF" d="M22.5,17.3c2.867,0,5.2,2.333,5.2,5.2s-2.333,5.2-5.2,5.2s-5.2-2.333-5.2-5.2S19.633,17.3,22.5,17.3
				 M22.5,16c-3.59,0-6.5,2.91-6.5,6.5s2.91,6.5,6.5,6.5s6.5-2.91,6.5-6.5S26.09,16,22.5,16L22.5,16z"/>
		</g>
		<circle fill="#3796FF" cx="22.5" cy="22.5" r="3.714"/>
	</g>
	<g display="inline">
		<g>
			<path fill="#3796FF" d="M7.5,17.3c2.867,0,5.2,2.333,5.2,5.2s-2.333,5.2-5.2,5.2s-5.2-2.333-5.2-5.2S4.633,17.3,7.5,17.3 M7.5,16
				C3.91,16,1,18.91,1,22.5S3.91,29,7.5,29s6.5-2.91,6.5-6.5S11.09,16,7.5,16L7.5,16z"/>
		</g>
		<circle display="none" fill="#3796FF" cx="7.5" cy="22.5" r="3.714"/>
	</g>
</g>
<g id="color_x5F_flag" display="none">
	<g display="inline">
		<path fill="#3796FF" stroke="#3796FF" stroke-width="0.75" stroke-miterlimit="10" d="M15.862,19.946l-4.641-0.215L7.602,6.223
			l4.846,0.16l4.722-2.667l4.882,0.014l3.608-2.352l3.622,13.517l-3.758,2.25l-4.791,0.115L15.862,19.946z M11.495,19.391
			l4.284,0.198l4.861-2.679l4.784-0.114l3.45-2.066L25.446,1.938l-3.29,2.145l-4.894-0.014l-4.727,2.669L8.065,6.59L11.495,19.391z"
			/>
		<path fill="#3796FF" stroke="#3796FF" stroke-width="0.75" stroke-miterlimit="10" d="M15.524,19.983l-4.997-0.231L6.718,5.537
			l5.222,0.173l4.717-2.664l4.87,0.014l3.927-2.56l3.816,14.243l-4.065,2.434l-4.798,0.115L15.524,19.983z M11.347,18.733
			l3.928,0.182l4.849-2.672l4.777-0.115l3.142-1.882L24.81,2.18l-2.971,1.937l-4.906-0.015l-4.732,2.672L8.106,6.639L11.347,18.733z
			"/>
		
			<rect x="10.047" y="5.845" transform="matrix(0.9659 -0.2588 0.2588 0.9659 -4.244 3.3613)" fill="#3796FF" stroke="#3796FF" stroke-width="0.75" stroke-miterlimit="10" width="1.194" height="23.908"/>
	</g>
</g>
<g id="fast_x5F_search" display="none">
	
		<circle display="inline" fill="none" stroke="#3796FF" stroke-width="2.3" stroke-miterlimit="10" cx="9.958" cy="10.125" r="8.5"/>
	<polygon display="inline" fill="#3796FF" points="26.331,30 13.831,16.826 16.449,13.915 30,25.949 	"/>
</g>
<g id="shortcuts" display="none">
</g>
</svg>
