<?xml version="1.0" encoding="utf-8"?>
<!-- Generator: Adobe Illustrator 17.0.0, SVG Export Plug-In . SVG Version: 6.00 Build 0)  -->
<!DOCTYPE svg PUBLIC "-//W3C//DTD SVG 1.1//EN" "http://www.w3.org/Graphics/SVG/1.1/DTD/svg11.dtd">
<svg version="1.1" id="features" xmlns="http://www.w3.org/2000/svg" xmlns:xlink="http://www.w3.org/1999/xlink" x="0px" y="0px"
	 width="30px" height="30px" viewBox="0 0 30 30" enable-background="new 0 0 30 30" xml:space="preserve">
<g>
	<g>
		<path fill="#3796FF" d="M7.5,2.3c2.867,0,5.2,2.333,5.2,5.2s-2.333,5.2-5.2,5.2s-5.2-2.333-5.2-5.2S4.633,2.3,7.5,2.3 M7.5,1
			C3.91,1,1,3.91,1,7.5S3.91,14,7.5,14S14,11.09,14,7.5S11.09,1,7.5,1L7.5,1z"/>
	</g>
	<circle fill="#3796FF" cx="7.5" cy="7.5" r="3.714"/>
</g>
<g>
	<g>
		<path fill="#3796FF" d="M22.5,2.3c2.867,0,5.2,2.333,5.2,5.2s-2.333,5.2-5.2,5.2s-5.2-2.333-5.2-5.2S19.633,2.3,22.5,2.3 M22.5,1
			C18.91,1,16,3.91,16,7.5s2.91,6.5,6.5,6.5S29,11.09,29,7.5S26.09,1,22.5,1L22.5,1z"/>
	</g>
	<circle display="none" fill="#3796FF" cx="22.5" cy="7.5" r="3.714"/>
</g>
<g>
	<g>
		<path fill="#3796FF" d="M22.5,17.3c2.867,0,5.2,2.333,5.2,5.2s-2.333,5.2-5.2,5.2s-5.2-2.333-5.2-5.2S19.633,17.3,22.5,17.3
			 M22.5,16c-3.59,0-6.5,2.91-6.5,6.5s2.91,6.5,6.5,6.5s6.5-2.91,6.5-6.5S26.09,16,22.5,16L22.5,16z"/>
	</g>
	<circle fill="#3796FF" cx="22.5" cy="22.5" r="3.714"/>
</g>
<g>
	<g>
		<path fill="#3796FF" d="M7.5,17.3c2.867,0,5.2,2.333,5.2,5.2s-2.333,5.2-5.2,5.2s-5.2-2.333-5.2-5.2S4.633,17.3,7.5,17.3 M7.5,16
			C3.91,16,1,18.91,1,22.5S3.91,29,7.5,29s6.5-2.91,6.5-6.5S11.09,16,7.5,16L7.5,16z"/>
	</g>
	<circle display="none" fill="#3796FF" cx="7.5" cy="22.5" r="3.714"/>
</g>
</svg>
